<?xml version="1.0" encoding="UTF-8" standalone="no"?>
<!DOCTYPE svg PUBLIC "-//W3C//DTD SVG 1.1//EN" "http://www.w3.org/Graphics/SVG/1.1/DTD/svg11.dtd">
<svg width="100%" height="100%" viewBox="0 0 600 600" version="1.1" xmlns="http://www.w3.org/2000/svg" xmlns:xlink="http://www.w3.org/1999/xlink" xml:space="preserve" xmlns:serif="http://www.serif.com/" style="fill-rule:evenodd;clip-rule:evenodd;stroke-linecap:round;stroke-linejoin:round;stroke-miterlimit:1.5;">
    <g transform="matrix(1,0,0,1,-1400,0)">
        <g transform="matrix(0.666667,0,0,0.819692,-2066.67,0)">
            <rect id="_9-Months" serif:id="9 Months" x="5200" y="0" width="900" height="731.982" style="fill:none;"/>
            <g id="_9-Months1" serif:id="9 Months">
                <g transform="matrix(12.8399,0,0,10.4429,5135.34,620.067)">
                    <g transform="matrix(1,0,0,1,9.83644,-55.1679)">
                        <path d="M17,15C16.448,15 16,14.552 16,14L16,3C16,2.448 16.448,2 17,2C17.552,2 18,2.448 18,3L18,14C18,14.552 17.552,15 17,15Z" style="fill:rgb(33,33,33);fill-rule:nonzero;"/>
                    </g>
                    <g transform="matrix(0.919868,0,0,0.972471,11.1987,-54.9443)">
                        <path d="M56,9L50,9L50,14C50,15.654 48.654,17 47,17C45.346,17 44,15.654 44,14L44,9L20,9L20,14C20,15.654 18.654,17 17,17C15.346,17 14,15.654 14,14L14,9L8,9C4.688,9.003 2.003,11.688 2,15L2,54C2.003,57.312 4.688,59.997 8,60L56,60C59.312,59.997 61.997,57.312 62,54L62,15C61.997,11.688 59.312,9.003 56,9ZM60,54C60,56.209 58.209,58 56,58L8,58C5.791,58 4,56.209 4,54L4,24L60,24L60,54Z" style="fill:rgb(33,33,33);fill-rule:nonzero;"/>
                    </g>
                    <g transform="matrix(1,0,0,1,7.43248,-55.1679)">
                        <path d="M47,15C46.448,15 46,14.552 46,14L46,3C46,2.448 46.448,2 47,2C47.552,2 48,2.448 48,3L48,14C48,14.552 47.552,15 47,15Z" style="fill:rgb(33,33,33);fill-rule:nonzero;"/>
                    </g>
                    <g transform="matrix(0.109135,0,0,0.112768,-140.954,-136.562)">
                        <path d="M1541.38,1147.8C1541.38,1140.1 1534.92,1133.86 1526.97,1133.86L1465.5,1133.86C1457.55,1133.86 1451.1,1140.1 1451.1,1147.8L1451.1,1191.11C1451.1,1198.81 1457.55,1205.05 1465.5,1205.05L1526.97,1205.05C1534.92,1205.05 1541.38,1198.81 1541.38,1191.11L1541.38,1147.8Z" style="fill:rgb(33,33,33);stroke:rgb(33,33,33);stroke-width:8.77px;"/>
                    </g>
                    <g transform="matrix(0.109135,0,0,0.112768,-140.954,-146.902)">
                        <path d="M1541.38,1147.8C1541.38,1140.1 1534.92,1133.86 1526.97,1133.86L1465.5,1133.86C1457.55,1133.86 1451.1,1140.1 1451.1,1147.8L1451.1,1191.11C1451.1,1198.81 1457.55,1205.05 1465.5,1205.05L1526.97,1205.05C1534.92,1205.05 1541.38,1198.81 1541.38,1191.11L1541.38,1147.8Z" style="fill:rgb(33,33,33);stroke:rgb(33,33,33);stroke-width:8.77px;"/>
                    </g>
                    <g transform="matrix(0.109135,0,0,0.112768,-140.954,-157.223)">
                        <path d="M1541.38,1147.8C1541.38,1140.1 1534.92,1133.86 1526.97,1133.86L1465.5,1133.86C1457.55,1133.86 1451.1,1140.1 1451.1,1147.8L1451.1,1191.11C1451.1,1198.81 1457.55,1205.05 1465.5,1205.05L1526.97,1205.05C1534.92,1205.05 1541.38,1198.81 1541.38,1191.11L1541.38,1147.8Z" style="fill:rgb(33,33,33);stroke:rgb(33,33,33);stroke-width:8.77px;"/>
                    </g>
                    <g transform="matrix(0.109135,0,0,0.112768,-128.718,-136.562)">
                        <path d="M1541.38,1147.8C1541.38,1140.1 1534.92,1133.86 1526.97,1133.86L1465.5,1133.86C1457.55,1133.86 1451.1,1140.1 1451.1,1147.8L1451.1,1191.11C1451.1,1198.81 1457.55,1205.05 1465.5,1205.05L1526.97,1205.05C1534.92,1205.05 1541.38,1198.81 1541.38,1191.11L1541.38,1147.8Z" style="fill:rgb(33,33,33);stroke:rgb(33,33,33);stroke-width:8.77px;"/>
                    </g>
                    <g transform="matrix(0.109135,0,0,0.112768,-128.718,-146.902)">
                        <path d="M1541.38,1147.8C1541.38,1140.1 1534.92,1133.86 1526.97,1133.86L1465.5,1133.86C1457.55,1133.86 1451.1,1140.1 1451.1,1147.8L1451.1,1191.11C1451.1,1198.81 1457.55,1205.05 1465.5,1205.05L1526.97,1205.05C1534.92,1205.05 1541.38,1198.81 1541.38,1191.11L1541.38,1147.8Z" style="fill:rgb(33,33,33);stroke:rgb(33,33,33);stroke-width:8.77px;"/>
                    </g>
                    <g transform="matrix(0.109135,0,0,0.112768,-128.718,-157.223)">
                        <path d="M1541.38,1147.8C1541.38,1140.1 1534.92,1133.86 1526.97,1133.86L1465.5,1133.86C1457.55,1133.86 1451.1,1140.1 1451.1,1147.8L1451.1,1191.11C1451.1,1198.81 1457.55,1205.05 1465.5,1205.05L1526.97,1205.05C1534.92,1205.05 1541.38,1198.81 1541.38,1191.11L1541.38,1147.8Z" style="fill:rgb(33,33,33);stroke:rgb(33,33,33);stroke-width:8.77px;"/>
                    </g>
                    <g transform="matrix(0.109135,0,0,0.112768,-116.486,-136.562)">
                        <path d="M1541.38,1147.8C1541.38,1140.1 1534.92,1133.86 1526.97,1133.86L1465.5,1133.86C1457.55,1133.86 1451.1,1140.1 1451.1,1147.8L1451.1,1191.11C1451.1,1198.81 1457.55,1205.05 1465.5,1205.05L1526.97,1205.05C1534.92,1205.05 1541.38,1198.81 1541.38,1191.11L1541.38,1147.8Z" style="fill:rgb(33,33,33);stroke:rgb(33,33,33);stroke-width:8.77px;"/>
                    </g>
                    <g transform="matrix(0.109135,0,0,0.112768,-116.486,-146.902)">
                        <path d="M1541.38,1147.8C1541.38,1140.1 1534.92,1133.86 1526.97,1133.86L1465.5,1133.86C1457.55,1133.86 1451.1,1140.1 1451.1,1147.8L1451.1,1191.11C1451.1,1198.81 1457.55,1205.05 1465.5,1205.05L1526.97,1205.05C1534.92,1205.05 1541.38,1198.81 1541.38,1191.11L1541.38,1147.8Z" style="fill:rgb(33,33,33);stroke:rgb(33,33,33);stroke-width:8.77px;"/>
                    </g>
                    <g transform="matrix(0.109135,0,0,0.112768,-116.486,-157.223)">
                        <path d="M1541.38,1147.8C1541.38,1140.1 1534.92,1133.86 1526.97,1133.86L1465.5,1133.86C1457.55,1133.86 1451.1,1140.1 1451.1,1147.8L1451.1,1191.11C1451.1,1198.81 1457.55,1205.05 1465.5,1205.05L1526.97,1205.05C1534.92,1205.05 1541.38,1198.81 1541.38,1191.11L1541.38,1147.8Z" style="fill:rgb(33,33,33);stroke:rgb(33,33,33);stroke-width:8.77px;"/>
                    </g>
                </g>
            </g>
        </g>
    </g>
</svg>
